<?xml version="1.0" standalone="no"?>
<!DOCTYPE svg PUBLIC "-//W3C//DTD SVG 20010904//EN"
 "http://www.w3.org/TR/2001/REC-SVG-20010904/DTD/svg10.dtd">
<svg version="1.0" xmlns="http://www.w3.org/2000/svg"
 width="482.000000pt" height="518.000000pt" viewBox="0 0 482.000000 518.000000"
 preserveAspectRatio="xMidYMid meet">

<g transform="translate(0.000000,518.000000) scale(0.100000,-0.100000)"
fill="#000000" stroke="none">
<path d="M2145 5150 c-8 -12 -65 -40 -83 -40 -10 0 -13 -8 -10 -25 3 -14 2
-28 -2 -30 -5 -3 -6 -13 -3 -24 4 -15 0 -18 -21 -14 -14 3 -31 11 -37 19 -9
11 -7 14 10 14 19 0 21 4 15 22 -8 27 -35 49 -49 40 -5 -4 -2 -8 8 -10 9 -2
17 -8 17 -13 0 -14 -12 -11 -40 11 -30 23 -54 26 -47 5 5 -11 1 -12 -18 -5
-27 10 -59 6 -118 -16 -23 -8 -60 -20 -82 -25 -22 -6 -44 -14 -49 -20 -6 -5
-18 -9 -28 -9 -10 0 -18 -4 -18 -9 0 -5 -12 -9 -28 -9 -15 1 -38 -2 -51 -7
-20 -6 -22 -12 -17 -38 5 -23 3 -28 -5 -20 -6 6 -28 9 -51 5 -30 -4 -39 -2
-34 7 4 6 4 11 -1 9 -4 -1 -23 2 -41 6 -26 6 -38 4 -53 -10 -27 -25 -24 -34
12 -32 18 2 34 -2 36 -9 3 -8 -9 -11 -42 -8 l-45 5 15 -30 c12 -24 13 -34 3
-57 -7 -15 -21 -34 -30 -41 -19 -14 -26 -48 -7 -37 6 4 5 -3 -3 -14 -11 -18
-11 -23 1 -30 7 -5 11 -13 7 -19 -3 -6 -2 -13 3 -17 13 -7 34 32 27 50 -8 22
16 35 37 20 18 -13 17 -14 -3 -20 -20 -6 -20 -8 -6 -24 9 -10 19 -31 22 -49 5
-26 1 -36 -24 -62 -17 -16 -39 -30 -50 -30 -36 0 -57 -49 -38 -92 5 -11 1 -18
-13 -23 -12 -3 -21 -14 -21 -23 0 -9 -18 -37 -40 -62 -22 -25 -40 -51 -40 -58
0 -25 -30 -71 -50 -77 -33 -10 -58 -44 -102 -132 -22 -46 -44 -83 -49 -83 -4
0 -11 -22 -15 -49 -6 -48 -26 -80 -59 -99 -25 -13 -65 -189 -52 -226 9 -25 7
-31 -14 -46 -22 -17 -23 -25 -24 -127 0 -60 -6 -117 -12 -128 -8 -14 -10 -62
-7 -140 2 -66 4 -135 4 -153 -1 -43 -37 -98 -74 -114 -31 -12 -116 -90 -116
-105 0 -5 -6 -15 -12 -22 -7 -6 -14 -26 -15 -44 -1 -18 -5 -47 -9 -65 -7 -36
16 -82 41 -82 8 0 15 -7 15 -15 0 -8 5 -15 10 -15 6 0 10 -7 10 -15 0 -18 -27
-20 -32 -3 -5 14 -28 2 -28 -16 0 -7 8 -21 18 -32 34 -36 81 -129 73 -143 -10
-15 -36 -31 -109 -66 -29 -14 -55 -33 -58 -43 -18 -55 -32 -79 -66 -119 -29
-34 -38 -53 -38 -80 0 -22 -9 -48 -23 -67 -44 -58 -77 -123 -77 -150 0 -22 7
-30 37 -43 38 -15 112 -84 132 -122 18 -33 12 -75 -20 -147 -18 -39 -39 -112
-50 -169 -9 -55 -25 -134 -34 -174 -24 -110 -24 -266 0 -315 40 -84 147 -129
310 -131 172 -2 210 -26 265 -157 38 -93 86 -148 164 -188 53 -28 66 -30 160
-30 60 0 111 -5 125 -13 16 -8 33 -33 49 -72 34 -86 55 -110 124 -144 47 -24
74 -31 120 -31 52 0 62 3 97 35 l39 36 24 -30 c73 -90 247 -93 294 -5 10 19
21 34 24 34 3 0 22 -16 41 -36 18 -20 48 -43 66 -50 44 -19 166 -18 203 1 38
20 38 28 0 20 -41 -9 -59 4 -29 21 l24 13 -25 1 c-31 1 -85 46 -99 83 -27 70
-6 111 55 111 22 0 29 3 20 8 -8 4 -38 3 -67 -2 -44 -9 -55 -8 -71 6 -10 10
-18 29 -18 43 0 15 -11 43 -25 63 -13 20 -29 56 -35 81 -18 83 -27 95 -87 126
-60 30 -80 44 -142 97 -20 17 -55 43 -79 58 -35 22 -50 41 -82 110 -31 64 -54
97 -101 140 -33 31 -66 56 -74 56 -32 0 -23 -24 29 -81 30 -33 67 -79 83 -102
67 -101 105 -147 113 -142 6 4 21 -6 35 -21 22 -23 23 -29 12 -43 -8 -9 -13
-37 -13 -63 1 -38 6 -50 30 -69 16 -12 34 -37 42 -55 7 -17 29 -47 48 -65 38
-36 60 -80 71 -148 7 -41 6 -43 -14 -36 -19 6 -18 2 10 -39 35 -52 35 -85 0
-102 -45 -23 -101 17 -121 86 -9 33 8 60 37 60 9 0 13 3 9 7 -4 4 -22 6 -40 5
-27 -2 -39 3 -55 24 -12 15 -21 32 -21 39 0 7 -9 19 -20 26 -11 8 -24 35 -31
64 -18 83 -112 278 -186 388 -29 43 -53 82 -53 88 0 5 -11 26 -25 47 -13 20
-43 80 -66 132 -44 100 -66 133 -81 124 -13 -8 0 -80 24 -134 12 -25 24 -71
28 -103 5 -32 15 -64 23 -70 8 -7 31 -38 51 -69 34 -54 58 -77 81 -76 10 1 40
-51 33 -57 -2 -3 -17 2 -32 10 -27 15 -28 14 -22 -7 17 -57 15 -62 -19 -94
-44 -40 -44 -60 -2 -78 24 -9 40 -27 54 -57 12 -24 37 -71 57 -103 39 -65 51
-141 20 -129 -10 4 -7 -6 10 -32 33 -48 33 -63 0 -75 -52 -20 -70 -13 -94 37
l-22 47 22 18 22 18 -29 0 c-18 0 -37 9 -50 23 -31 35 -74 126 -78 166 -5 50
-22 91 -38 91 -22 0 -57 43 -48 59 11 17 -22 105 -40 109 -14 3 -79 128 -79
152 0 19 39 -34 51 -70 6 -16 16 -30 21 -30 15 0 4 114 -16 172 -12 33 -15 63
-10 97 4 35 2 58 -9 79 -11 24 -13 48 -7 115 5 47 11 91 15 96 3 6 -3 23 -13
38 -18 27 -53 81 -84 133 -8 14 -26 53 -40 87 -21 52 -22 60 -8 50 10 -5 27
-29 38 -53 12 -23 30 -45 41 -49 12 -3 21 -12 21 -18 0 -7 14 -20 31 -29 16
-10 27 -13 24 -8 -8 12 58 0 66 -12 3 -5 18 -15 32 -23 45 -23 42 10 -6 58
-62 62 -91 105 -116 171 -23 63 -19 87 8 46 38 -58 108 -144 120 -148 10 -3
11 0 2 16 -18 34 -12 35 15 3 14 -17 33 -31 41 -31 14 0 14 2 0 18 -10 10 -15
21 -11 24 3 3 -11 16 -31 28 -44 27 -55 47 -47 85 l6 30 6 -34 c4 -26 11 -35
28 -37 12 -2 22 1 22 7 0 5 5 7 10 4 6 -3 10 -2 10 4 0 12 87 -34 118 -62 27
-25 52 -31 52 -12 0 16 -136 199 -178 238 -16 16 -42 59 -57 95 -16 37 -34 74
-41 82 -6 8 -35 59 -64 112 -28 54 -56 100 -60 103 -13 8 -28 -26 -38 -86 -6
-39 -4 -71 7 -117 l16 -63 40 51 c28 36 41 46 43 34 2 -9 -14 -34 -37 -57 -38
-37 -47 -60 -42 -107 3 -22 40 -50 67 -50 17 0 24 -6 24 -19 0 -11 4 -23 10
-26 5 -3 15 -16 21 -28 l12 -21 -29 18 c-16 10 -39 27 -50 38 -12 11 -37 27
-55 36 -32 16 -34 20 -31 62 5 57 -7 152 -18 145 -4 -3 -7 -41 -6 -85 1 -68
-1 -79 -14 -75 -8 2 -27 7 -41 10 -24 6 -27 11 -25 46 4 68 31 67 31 -2 0 -22
4 -39 11 -39 7 0 14 33 18 85 5 67 3 92 -9 115 -18 35 -3 40 19 8 16 -22 16
-22 16 8 0 17 7 53 15 80 21 68 19 103 -8 143 -36 56 -46 75 -41 80 11 12 60
-52 96 -127 22 -45 43 -82 48 -82 4 0 11 11 14 25 4 14 11 25 17 25 7 0 9 -9
4 -23 -17 -54 -16 -67 9 -116 26 -50 46 -59 46 -21 0 10 5 22 11 26 7 4 9 0 6
-12 -15 -55 -17 -92 -4 -97 7 -3 26 -37 41 -76 15 -39 32 -73 37 -77 5 -3 14
6 20 20 10 21 9 30 -6 53 l-18 28 21 -19 c12 -11 22 -27 22 -37 0 -10 10 -27
22 -39 23 -22 18 -26 -12 -10 -13 7 -21 7 -25 -1 -8 -12 42 -69 61 -69 16 0
24 24 14 41 -6 8 -4 17 3 22 9 7 9 10 -1 14 -11 4 -52 82 -52 99 0 4 -22 39
-48 78 -27 39 -62 98 -79 131 -46 91 -73 138 -93 160 -44 50 -138 264 -151
345 -24 141 -24 134 17 180 47 52 57 37 15 -21 -34 -46 -38 -67 -18 -75 8 -3
12 -16 9 -33 -5 -38 16 -137 33 -151 19 -16 61 26 80 79 12 36 13 48 1 81 -17
50 0 41 25 -14 l19 -41 -5 73 c-3 39 -3 72 -1 72 9 0 38 -69 33 -77 -3 -5 -2
-15 2 -22 6 -9 13 0 24 30 10 28 16 36 16 23 1 -12 -6 -41 -14 -64 -8 -23 -15
-57 -15 -74 0 -21 -3 -27 -9 -17 -11 17 -23 -1 -20 -32 1 -12 -5 -40 -15 -62
-9 -22 -22 -58 -27 -81 -10 -39 -8 -46 34 -125 82 -152 123 -223 158 -275 19
-28 41 -65 49 -83 l13 -32 14 30 c13 26 13 32 0 51 -13 19 -12 51 4 95 4 11
-34 65 -45 65 -3 0 -6 -7 -6 -15 0 -8 7 -15 17 -15 25 0 4 -15 -22 -15 -20 -1
-22 2 -14 18 7 12 7 23 -1 32 -7 8 -9 24 -5 36 4 12 3 24 -1 28 -17 12 -43 72
-38 85 6 15 -30 41 -45 32 -12 -8 -27 13 -35 47 -6 24 -5 26 7 16 8 -8 12 -22
9 -32 -4 -17 -3 -18 17 -6 11 8 21 19 21 26 0 7 4 13 10 13 5 0 7 -7 4 -15 -4
-8 -1 -15 5 -15 18 0 12 39 -9 60 -22 22 -26 40 -10 40 6 0 10 7 10 15 0 8 -4
15 -10 15 -5 0 -10 8 -10 18 0 14 -2 15 -10 2 -13 -20 -24 -6 -12 17 5 10 6
27 1 38 -4 11 -8 27 -8 35 -1 12 2 12 15 -2 15 -15 18 -14 37 5 11 11 22 30
23 42 1 12 18 55 38 96 20 41 36 79 36 85 0 6 12 29 26 50 22 32 24 41 14 57
-7 12 -7 17 -1 12 6 -3 11 -2 11 4 0 5 16 19 35 31 42 26 79 21 139 -19 42
-27 47 -31 115 -95 42 -40 81 -111 81 -150 0 -12 8 -37 19 -56 10 -19 22 -50
26 -69 6 -29 5 -33 -9 -28 -19 7 -23 -22 -5 -40 6 -6 8 -16 5 -22 -11 -17 -47
10 -40 31 4 15 0 16 -33 11 -21 -4 -44 -13 -51 -22 -12 -14 -13 -14 -8 2 4 12
2 17 -6 15 -24 -8 -18 -26 14 -41 27 -14 29 -17 11 -17 -46 0 -66 -58 -29 -82
6 -5 7 -8 1 -8 -5 -1 2 -8 18 -16 31 -17 33 -26 12 -44 -8 -7 -15 -18 -15 -24
0 -6 -16 -30 -34 -54 -26 -33 -35 -53 -34 -81 0 -21 -6 -49 -15 -62 -8 -13
-17 -48 -20 -78 -4 -29 -10 -58 -15 -65 -5 -6 -15 -29 -22 -50 -11 -34 -10
-40 4 -48 14 -8 14 -11 2 -24 -8 -8 -27 -14 -42 -14 -23 0 -25 2 -14 15 7 9
10 18 6 22 -3 4 -12 -2 -20 -12 -13 -18 -14 -18 -36 3 -19 18 -36 21 -68 13
-3 -1 13 -22 51 -62 30 -33 34 -44 13 -36 -11 4 -66 -35 -66 -47 0 -2 23 -23
50 -46 54 -45 66 -43 25 4 -14 16 -25 33 -25 38 0 12 40 -37 69 -85 13 -20 38
-56 57 -78 19 -23 34 -47 34 -54 0 -12 35 -57 90 -114 8 -9 56 -64 107 -122
154 -177 273 -270 407 -315 38 -13 81 -31 94 -40 14 -9 58 -20 100 -26 79 -9
129 -30 177 -73 54 -48 99 -65 170 -65 98 0 146 -16 206 -67 102 -87 217 -151
237 -131 16 16 132 22 196 8 50 -10 68 -21 126 -74 77 -71 134 -97 267 -122
125 -23 350 -16 413 13 39 17 101 69 75 62 -19 -6 -61 15 -136 66 -66 45 -88
55 -151 64 -93 15 -99 16 -121 6 -30 -13 -102 1 -135 25 -16 12 -38 38 -48 56
-10 19 -21 34 -25 34 -9 0 -28 50 -31 85 -3 28 -6 30 -58 36 -30 3 -80 12
-110 18 -30 7 -105 13 -166 15 -93 3 -118 7 -151 25 -48 28 -71 59 -48 67 39
16 -6 64 -60 64 -31 0 -123 66 -192 138 -35 36 -63 69 -63 74 0 5 -18 28 -41
52 -43 48 -112 89 -169 101 -56 12 -118 60 -116 89 1 25 11 27 64 10 8 -2 25
-1 39 2 24 6 24 7 -13 20 -22 7 -48 25 -59 40 -11 16 -36 46 -56 68 -67 75
-68 84 -27 244 10 40 9 46 -19 85 -41 57 -73 122 -73 147 0 29 -31 23 -46 -9
-7 -13 -18 -27 -24 -31 -7 -4 -21 -32 -31 -61 -10 -30 -19 -47 -20 -39 -3 36
5 66 27 101 13 21 24 48 24 59 0 11 6 20 14 20 19 0 94 84 100 112 3 13 8 43
11 68 15 117 16 149 5 172 -21 41 -75 117 -82 118 -11 0 -10 -37 3 -81 14 -45
-1 -111 -36 -162 -26 -39 -49 -119 -42 -147 6 -23 -1 -25 -27 -5 -14 11 -16
18 -8 27 5 7 13 31 17 53 4 22 23 68 42 103 26 48 33 72 31 102 -4 50 -18 55
-32 13 -6 -18 -19 -40 -30 -50 -18 -17 -18 -17 -13 7 3 14 14 51 26 82 12 32
21 75 21 97 0 22 5 43 10 46 6 4 8 14 6 23 -3 10 -2 37 3 62 l9 45 1 -38 c1
-25 5 -36 12 -31 6 3 9 15 6 25 -3 10 -1 22 4 25 5 3 9 -6 9 -20 0 -37 17 -40
29 -6 5 17 12 30 14 30 7 0 -6 -60 -14 -66 -5 -3 -9 -38 -9 -78 0 -55 4 -77
16 -87 25 -21 41 -60 68 -167 23 -88 25 -107 15 -152 -9 -43 -9 -55 3 -66 19
-19 76 -35 84 -23 3 5 10 6 16 3 7 -4 6 -9 -3 -14 -9 -6 -9 -12 4 -25 10 -9
22 -26 28 -38 10 -21 10 -21 -5 -3 -15 19 -76 46 -105 46 -26 0 13 -43 50 -55
27 -9 39 -22 60 -66 30 -63 47 -108 60 -164 6 -22 15 -44 21 -50 7 -7 9 -6 5
1 -4 7 0 15 9 18 12 5 15 2 10 -9 -3 -9 -2 -13 4 -10 5 3 14 -3 19 -14 8 -14
7 -20 -4 -25 -25 -9 -17 -24 35 -63 52 -39 71 -68 23 -35 -16 11 -41 27 -56
36 -28 17 -87 126 -87 161 0 9 -6 31 -14 48 -8 18 -23 53 -34 78 -13 31 -34
57 -65 78 -70 51 -92 118 -74 231 5 31 4 39 -2 25 -5 -11 -10 -31 -10 -45 -1
-14 -14 -61 -30 -105 -15 -44 -26 -86 -24 -92 7 -20 23 -15 23 6 0 11 4 23 10
26 13 8 13 -21 0 -46 -13 -23 14 -88 39 -96 36 -11 97 -37 106 -46 6 -5 -6 -6
-32 -2 -24 4 -43 4 -43 0 0 -19 25 -46 65 -71 30 -19 58 -49 82 -88 28 -45 51
-68 107 -104 39 -25 81 -54 94 -65 12 -11 22 -17 22 -12 0 5 -10 20 -22 34
-23 25 -23 25 10 -2 36 -29 68 -27 52 3 -13 24 -13 100 0 100 5 0 12 -17 15
-37 10 -57 12 -62 32 -59 12 2 20 15 24 42 6 32 0 56 -33 134 -40 94 -77 164
-84 158 -2 -2 5 -31 15 -64 11 -33 22 -82 26 -109 7 -46 6 -49 -9 -34 -10 9
-19 38 -22 64 -7 59 -51 149 -92 189 l-30 28 -12 -22 c-8 -15 -9 -25 -2 -32 6
-6 8 -17 5 -24 -3 -8 2 -16 10 -20 29 -11 107 -145 107 -183 0 -9 -4 -23 -10
-31 -7 -12 -11 -10 -20 10 -16 37 -35 68 -53 88 -10 10 -14 22 -10 26 5 4 1 6
-7 4 -10 -2 -14 3 -12 16 2 12 -1 17 -10 13 -11 -4 -14 9 -14 59 0 46 -5 68
-18 83 -10 10 -16 30 -14 43 2 12 -1 23 -7 24 -27 2 -46 18 -44 38 1 11 -1 29
-5 38 -4 9 -4 22 0 29 4 7 -3 19 -17 30 l-24 18 33 7 c40 8 37 24 -9 40 -19 7
-27 13 -19 14 13 0 12 3 -2 13 -12 10 -14 17 -5 32 7 14 7 20 -2 23 -6 2 -18
17 -26 33 -9 16 -22 29 -29 29 -10 0 -13 15 -11 59 3 58 3 59 -26 65 -16 3
-36 3 -44 0 -19 -8 -21 31 -2 40 6 3 0 4 -15 3 -17 -3 -29 1 -32 10 -10 26 -7
29 32 25 28 -2 33 -1 22 7 -12 9 -12 11 -1 11 10 0 12 8 7 31 -5 27 -3 30 12
25 11 -4 9 0 -5 10 -16 12 -23 27 -23 50 0 19 4 34 9 34 4 0 6 11 3 25 -2 14
-11 25 -19 25 -11 0 -11 4 -3 20 7 13 21 20 40 20 16 0 32 5 35 10 3 6 -4 10
-16 10 -16 0 -19 3 -11 13 20 25 -3 52 -49 57 -29 3 -43 9 -41 18 1 7 -13 32
-33 54 -45 53 -44 66 3 70 23 2 36 8 35 16 -2 6 -4 17 -5 23 -2 6 -13 22 -25
35 -13 13 -23 28 -23 34 0 17 -35 11 -50 -9 -7 -11 -17 -18 -21 -15 -4 2 -19
-10 -33 -27 -15 -18 -32 -29 -40 -26 -8 3 -20 -1 -26 -9 -7 -8 -18 -14 -26
-14 -7 0 -19 -6 -26 -12 -8 -7 -24 -19 -37 -26 -99 -57 -96 -57 -120 -10 -13
25 -15 26 -27 10 -8 -10 -13 -12 -14 -5 0 7 -6 10 -13 7 -8 -3 -20 2 -27 11
-11 13 -11 21 -2 36 7 10 12 25 12 33 0 8 7 16 15 20 8 3 15 11 15 18 1 22 37
58 58 58 11 0 22 5 24 12 2 6 20 11 39 10 29 -1 43 6 69 33 19 19 39 35 45 35
6 0 22 11 35 25 13 14 29 25 35 25 7 0 20 9 30 20 10 11 27 22 39 26 11 4 46
26 77 49 l56 42 59 -120 c90 -183 165 -249 248 -217 l30 11 -22 22 c-33 32
-72 94 -99 157 -14 30 -29 64 -34 75 -11 25 -94 242 -120 314 -10 30 -23 59
-28 65 -4 6 -14 29 -21 51 -7 22 -24 56 -36 75 -13 19 -24 40 -24 47 0 7 -5
13 -12 13 -6 0 -3 9 7 20 21 23 8 27 -21 5 -30 -23 -40 -17 -15 9 l22 23 -28
-4 -28 -4 25 22 25 22 -35 -8 c-29 -6 -33 -5 -22 6 16 17 15 29 -1 29 -8 0
-14 15 -16 42 -1 23 -4 44 -6 48 -2 3 7 24 21 45 13 22 27 48 30 57 3 9 19 22
35 28 16 7 29 17 29 22 0 5 12 20 26 34 24 25 26 25 44 9 15 -13 17 -22 10
-36 -7 -11 -7 -27 0 -43 8 -22 16 -26 50 -26 27 0 43 5 46 15 5 13 8 14 18 2
6 -8 21 -17 33 -20 18 -4 23 2 32 40 21 82 -33 146 -132 156 -21 2 -43 9 -49
15 -7 7 -17 12 -24 12 -6 0 -17 7 -25 16 -20 24 -98 59 -162 73 -51 11 -58 15
-55 34 7 49 133 27 224 -38 43 -31 56 -35 111 -35 57 0 65 -3 105 -37 43 -38
43 -38 40 -99 -2 -50 1 -64 18 -79 12 -11 20 -13 20 -6 0 6 -7 14 -15 17 -21
8 -19 26 5 52 25 26 50 29 50 4 0 -10 13 -22 33 -30 17 -8 44 -20 59 -28 14
-8 33 -14 41 -14 9 0 29 -11 45 -25 41 -34 51 -32 48 12 -1 28 -8 41 -25 49
-27 14 -11 29 19 19 26 -8 25 -1 -2 27 -22 23 -70 30 -95 15 -5 -3 -10 0 -10
8 0 15 16 20 47 15 12 -1 12 1 3 10 -6 7 -9 20 -6 29 4 12 3 13 -5 2 -7 -10
-13 -6 -25 18 -13 26 -13 31 -1 31 8 0 14 -4 14 -10 0 -18 19 -10 25 11 8 24
-9 41 -32 32 -7 -3 -13 0 -13 6 0 6 10 11 22 11 20 0 20 1 5 18 -18 20 -22 42
-9 42 5 0 9 7 9 15 0 8 -8 15 -18 15 -10 0 -24 6 -31 13 -32 30 -96 67 -116
67 -19 0 -20 -3 -12 -26 13 -34 13 -39 -3 -25 -8 6 -16 8 -20 5 -3 -3 -3 3 0
15 3 12 1 21 -5 21 -5 0 -12 9 -15 20 -3 11 -11 18 -19 15 -7 -3 -20 -1 -28 5
-13 8 -12 11 5 25 16 13 16 15 3 11 -9 -3 -19 0 -21 7 -3 9 -8 8 -21 -2 -14
-12 -19 -12 -34 2 -13 12 -22 13 -35 5 -10 -5 -29 -7 -43 -4 -16 4 -30 0 -42
-12 -10 -10 -24 -16 -30 -14 -20 6 -14 39 8 45 11 3 20 12 20 21 0 19 -16 21
-24 4 -3 -7 -2 0 1 16 4 21 3 27 -6 22 -7 -4 -18 -2 -26 4 -8 7 -31 18 -52 25
-32 11 -41 10 -69 -6 -20 -11 -46 -17 -65 -14 -38 5 -47 12 -25 21 9 3 16 15
16 25 0 10 5 19 10 19 6 0 2 9 -9 21 -11 12 -24 18 -30 15 -6 -4 -33 0 -61 8
-27 8 -52 11 -55 6z m135 -40 c0 -5 -5 -10 -11 -10 -5 0 -7 5 -4 10 3 6 8 10
11 10 2 0 4 -4 4 -10z m-132 -74 c4 -20 -22 -21 -42 -1 -8 8 -19 15 -25 15
-12 0 -15 13 -5 23 10 9 69 -20 72 -37z m-33 -30 c17 -12 14 -13 -25 -13 -39
0 -42 1 -25 13 10 8 22 14 25 14 3 0 15 -6 25 -14z m109 5 c4 -5 1 -11 -6 -13
-18 -6 -58 3 -58 13 0 12 57 12 64 0z m252 -43 c0 -10 -4 -18 -8 -18 -4 0 -12
8 -17 18 -7 14 -6 18 8 18 9 0 17 -8 17 -18z m111 -54 c-3 -3 -12 -4 -19 -1
-8 3 -5 6 6 6 11 1 17 -2 13 -5z m183 -44 c0 -5 -4 -10 -9 -10 -6 0 -13 5 -16
10 -3 6 1 10 9 10 9 0 16 -4 16 -10z m90 -26 c0 -8 -4 -12 -10 -9 -5 3 -10 10
-10 16 0 5 5 9 10 9 6 0 10 -7 10 -16z m-165 -14 c3 -5 1 -10 -4 -10 -6 0 -11
5 -11 10 0 6 2 10 4 10 3 0 8 -4 11 -10z m225 -86 c0 -8 -5 -12 -10 -9 -6 4
-8 11 -5 16 9 14 15 11 15 -7z m0 -59 c0 -8 4 -15 10 -15 8 0 24 -56 21 -77 0
-4 -12 -8 -26 -10 -29 -4 -33 12 -8 39 9 11 11 18 5 18 -7 0 -12 9 -12 20 0
11 -5 20 -11 20 -5 0 -7 5 -4 10 9 15 25 12 25 -5z m-92 -99 c-13 -13 -25 -22
-27 -20 -6 5 30 44 41 44 5 0 -2 -11 -14 -24z m-721 -22 c35 -17 55 -35 63
-54 7 -16 18 -34 26 -41 12 -9 12 -6 3 19 -6 17 -9 39 -7 48 2 13 11 10 43
-19 22 -19 43 -33 46 -31 4 2 20 -3 35 -11 16 -8 35 -15 42 -15 7 0 20 -7 28
-15 18 -18 10 -55 -12 -55 -8 0 -26 -11 -40 -25 -14 -14 -31 -25 -38 -25 -6 0
-21 -7 -32 -15 -10 -8 -25 -15 -31 -15 -21 0 -53 -38 -74 -86 -22 -52 -41 -74
-63 -74 -9 0 -16 -3 -16 -7 0 -5 -11 -21 -25 -37 -21 -25 -25 -26 -25 -10 -1
13 -6 8 -15 -14 -8 -18 -19 -31 -24 -28 -5 4 -12 0 -15 -6 -3 -7 -4 11 -2 40
3 57 0 64 -15 30 -7 -18 -8 -14 -3 17 5 36 4 38 -9 21 -13 -18 -14 -18 -20 4
-4 15 3 36 19 61 27 43 23 52 -7 17 -12 -16 -18 -18 -19 -9 0 11 -4 9 -15 -5
-22 -30 -17 -4 8 41 25 43 25 65 1 65 -18 0 -18 29 0 36 8 3 14 14 13 24 -1
18 -2 18 -21 2 -18 -16 -18 -16 -5 6 12 19 12 24 0 32 -12 7 -10 11 12 21 28
13 39 36 12 25 -8 -3 -15 -1 -15 4 0 6 8 10 18 11 16 0 16 1 -1 7 -16 7 -16 9
3 25 11 9 27 17 35 17 21 0 29 20 8 21 -16 1 -16 2 -1 6 11 3 15 10 11 20 -5
13 0 15 33 9 21 -4 62 -19 91 -32z m173 -64 c0 -5 -2 -10 -4 -10 -3 0 -8 5
-11 10 -3 6 -1 10 4 10 6 0 11 -4 11 -10z m-1055 -459 c-3 -6 -11 -11 -17 -11
-6 0 -6 6 2 15 14 17 26 13 15 -4z m-25 -30 c0 -5 -7 -14 -15 -21 -16 -14 -18
-10 -9 14 6 17 24 22 24 7z m-118 -153 c-7 -7 -12 -8 -12 -2 0 14 12 26 19 19
2 -3 -1 -11 -7 -17z m-116 -195 c-11 -11 -17 4 -9 23 7 18 8 18 11 1 2 -10 1
-21 -2 -24z m34 -60 c-10 -32 -25 -78 -34 -103 -8 -25 -20 -70 -27 -100 -6
-30 -18 -67 -25 -82 -24 -46 -29 -165 -10 -245 23 -104 21 -373 -4 -373 -13 0
-21 32 -11 44 5 6 7 29 5 51 -1 22 -3 65 -3 95 l-1 54 -21 -20 c-45 -45 -50
-153 -14 -278 14 -47 24 -96 24 -109 -1 -20 -2 -20 -6 -2 -3 11 -18 52 -33 90
-19 49 -31 103 -39 180 -10 101 -9 121 13 245 13 74 29 153 35 175 6 22 11 55
11 74 0 18 12 56 26 85 21 40 27 70 30 141 5 99 24 144 24 56 0 -29 4 -50 9
-47 4 3 18 33 30 66 28 77 45 79 21 3z m-133 -35 c-3 -7 -5 -2 -5 12 0 14 2
19 5 13 2 -7 2 -19 0 -25z m-10 -65 c-3 -10 -5 -4 -5 12 0 17 2 24 5 18 2 -7
2 -21 0 -30z m163 -125 c0 -48 -4 -47 -18 5 -8 30 -8 37 4 37 10 0 14 -12 14
-42z m-40 -67 c0 -5 -10 -11 -22 -14 -22 -6 -22 -6 -4 8 23 17 26 18 26 6z
m1307 -193 c-3 -7 -5 -2 -5 12 0 14 2 19 5 13 2 -7 2 -19 0 -25z m69 -22 c5
-30 -12 -36 -21 -7 -4 13 -12 18 -23 15 -9 -3 -6 1 8 9 29 18 29 18 36 -17z
m45 4 c11 0 19 -7 19 -16 0 -14 -3 -14 -15 -4 -10 9 -15 9 -15 1 0 -6 -4 -11
-9 -11 -5 0 -8 12 -8 28 0 15 2 21 4 15 3 -7 13 -13 24 -13z m-1656 -210 c-7
-30 -14 -46 -14 -35 -1 22 19 99 24 93 2 -1 -3 -28 -10 -58z m-8 -157 c-3 -10
-5 -2 -5 17 0 19 2 27 5 18 2 -10 2 -26 0 -35z m649 -31 c-12 -11 -17 7 -9 34
l8 29 3 -28 c2 -16 1 -31 -2 -35z m-607 -107 c12 -27 25 -66 27 -85 l4 -35
-14 40 c-7 22 -23 62 -35 88 -11 27 -21 56 -20 65 1 13 3 13 8 -3 4 -11 17
-42 30 -70z m281 17 c0 -9 13 -31 30 -48 16 -18 26 -35 22 -38 -3 -4 0 -5 8
-1 8 3 27 -6 43 -20 29 -28 38 -48 10 -23 -15 13 -67 31 -83 29 -2 0 -6 -36
-8 -78 -4 -91 -16 -114 -83 -166 -59 -46 -68 -74 -43 -129 19 -42 23 -110 6
-116 -5 -1 -8 -12 -5 -22 3 -11 1 -20 -5 -20 -6 0 -12 10 -14 23 -2 12 -9 21
-16 19 -10 -2 -11 4 -6 20 10 30 8 45 -10 119 -9 33 -16 70 -16 82 0 12 30 51
75 98 83 85 81 78 76 233 -2 47 1 66 8 62 6 -4 11 -15 11 -24z m280 -54 c0
-26 -4 -38 -8 -30 -8 12 -4 72 4 72 2 0 4 -19 4 -42z m586 -5 c-10 -10 -19 5
-10 18 6 11 8 11 12 0 2 -7 1 -15 -2 -18z m-16 -23 c0 -5 -4 -10 -10 -10 -5 0
-10 5 -10 10 0 6 5 10 10 10 6 0 10 -4 10 -10z m566 -60 c8 -7 14 -22 14 -34
0 -18 -3 -16 -20 12 -11 18 -19 42 -19 55 l2 22 4 -22 c2 -12 11 -27 19 -33z
m-171 -62 c-16 -24 -40 -54 -54 -68 -26 -26 -59 -67 -86 -105 -13 -19 -14 -19
-20 -2 -7 17 41 94 52 83 6 -6 53 43 53 55 0 8 10 21 57 71 28 31 27 10 -2
-34z m-6 -138 l16 -24 -28 18 c-15 10 -27 23 -27 28 0 16 22 4 39 -22z m-819
-60 c0 -5 -2 -10 -4 -10 -3 0 -8 5 -11 10 -3 6 -1 10 4 10 6 0 11 -4 11 -10z
m1057 -57 c-3 -10 -5 -4 -5 12 0 17 2 24 5 18 2 -7 2 -21 0 -30z m-341 -12
c10 -17 21 -28 25 -26 3 3 14 -15 23 -39 9 -24 26 -52 36 -61 11 -10 20 -28
20 -39 0 -12 10 -48 21 -81 11 -33 22 -76 24 -95 3 -19 7 -57 11 -85 3 -27 17
-69 30 -92 23 -39 119 -130 177 -166 36 -23 34 -37 -6 -37 -37 0 -103 56 -113
96 -3 12 -11 21 -17 20 -7 -2 -9 -1 -4 2 4 2 -5 19 -20 37 -16 19 -35 44 -45
57 l-16 23 -5 -25 c-3 -14 -10 -45 -16 -70 l-10 -45 4 55 c3 30 7 75 10 100 8
61 -26 202 -70 290 -19 39 -37 70 -39 70 -2 0 -2 -26 1 -59 4 -44 0 -73 -16
-120 -18 -53 -21 -78 -16 -154 l5 -92 -20 75 c-24 92 -25 121 -4 213 15 66 15
78 0 164 -9 52 -14 98 -11 103 11 17 23 11 41 -19z m171 -178 c7 -16 31 -57
53 -93 l42 -65 -22 -44 c-26 -55 -34 -50 -13 9 l15 45 -33 55 c-19 30 -42 66
-52 80 -18 26 -22 40 -9 40 4 0 13 -12 19 -27z m-1337 -8 c0 -8 -4 -15 -10
-15 -5 0 -10 7 -10 15 0 8 5 15 10 15 6 0 10 -7 10 -15z m233 -19 c25 -19 21
-26 -8 -13 -14 7 -25 15 -25 20 0 11 13 8 33 -7z m145 -68 c8 -28 7 -36 -2
-32 -7 3 -18 -5 -24 -18 -12 -22 -12 -21 -7 7 20 100 18 98 33 43z m166 -176
c32 -46 35 -66 4 -26 -13 16 -50 55 -83 87 l-60 59 56 -41 c31 -23 69 -59 83
-79z m-259 48 c10 -11 16 -20 13 -20 -3 0 -13 9 -23 20 -10 11 -16 20 -13 20
3 0 13 -9 23 -20z m-38 -142 c14 -15 34 -30 44 -33 11 -4 19 -10 19 -15 0 -11
-87 36 -117 63 -13 11 -23 28 -23 36 0 9 -16 29 -36 45 -25 20 -32 31 -24 36
8 5 30 -13 62 -49 27 -31 61 -68 75 -83z m-196 -20 c32 -63 36 -110 18 -201
-15 -74 -27 -73 -19 1 11 92 3 151 -27 211 -16 31 -27 65 -24 76 3 18 5 18 14
-5 5 -14 23 -51 38 -82z m1514 14 c-8 -9 -35 26 -35 46 0 9 8 4 21 -12 12 -15
18 -30 14 -34z m-1646 -111 c1 -22 -3 -31 -8 -25 -9 8 -16 75 -11 99 4 18 18
-39 19 -74z m1757 -82 c10 -12 35 -29 54 -39 60 -31 143 -120 112 -120 -20 0
-170 83 -189 106 -25 28 -31 74 -10 74 8 0 22 -9 33 -21z m-1746 -144 c-17
-59 -24 -52 -9 9 6 26 14 44 17 42 2 -3 -1 -26 -8 -51z m289 -147 c-1 -24 1
-51 5 -61 13 -29 -4 -34 -24 -7 -23 29 -25 49 -8 85 17 38 30 30 27 -17z
m-119 -194 c0 -8 5 -14 10 -14 6 0 10 -6 10 -14 0 -8 15 -29 34 -48 19 -19 39
-53 45 -76 7 -23 21 -48 33 -56 30 -21 9 -38 -70 -57 l-63 -16 -15 28 c-8 16
-14 56 -14 93 0 36 -5 77 -10 91 -8 20 -7 30 5 41 8 9 15 24 15 35 0 11 5 17
10 14 6 -3 10 -13 10 -21z m1087 -726 c-3 -7 -5 -2 -5 12 0 14 2 19 5 13 2 -7
2 -19 0 -25z m-363 -4 c3 -8 2 -12 -4 -9 -6 3 -10 10 -10 16 0 14 7 11 14 -7z"/>
<path d="M2008 4563 c7 -3 16 -2 19 1 4 3 -2 6 -13 5 -11 0 -14 -3 -6 -6z"/>
<path d="M2310 5074 c0 -14 3 -14 15 -4 8 7 15 14 15 16 0 2 -7 4 -15 4 -8 0
-15 -7 -15 -16z"/>
<path d="M2445 5070 c-4 -6 6 -10 24 -8 32 2 33 10 1 15 -10 1 -22 -2 -25 -7z"/>
<path d="M2556 5041 c-17 -7 -17 -8 -2 -24 21 -21 30 -22 22 -2 -4 12 0 14 22
9 26 -5 26 -5 8 10 -22 18 -23 18 -50 7z"/>
<path d="M2635 5000 c-7 -12 27 -22 37 -12 6 6 1 12 -11 15 -12 3 -23 2 -26
-3z"/>
<path d="M2725 5000 c-4 -6 7 -10 25 -10 18 0 29 4 25 10 -3 6 -15 10 -25 10
-10 0 -22 -4 -25 -10z"/>
<path d="M2805 4980 c-3 -6 1 -7 9 -4 18 7 21 14 7 14 -6 0 -13 -4 -16 -10z"/>
<path d="M2760 4921 c0 -5 7 -12 16 -15 22 -9 24 -8 18 9 -7 16 -34 21 -34 6z"/>
<path d="M3044 4686 c-4 -11 0 -24 10 -34 15 -15 16 -15 16 3 0 11 -4 27 -10
35 -8 12 -10 12 -16 -4z"/>
<path d="M3120 4380 c0 -5 5 -10 10 -10 6 0 10 5 10 10 0 6 -4 10 -10 10 -5 0
-10 -4 -10 -10z"/>
<path d="M2520 3120 c0 -5 4 -10 9 -10 6 0 13 5 16 10 3 6 -1 10 -9 10 -9 0
-16 -4 -16 -10z"/>
<path d="M2565 3060 c-8 -14 3 -30 21 -30 9 0 12 5 8 11 -3 6 0 15 7 20 11 6
8 9 -8 9 -12 0 -25 -4 -28 -10z"/>
<path d="M2610 3030 c0 -5 5 -10 10 -10 6 0 10 5 10 10 0 6 -4 10 -10 10 -5 0
-10 -4 -10 -10z"/>
<path d="M2437 2737 c-4 -10 -7 -31 -6 -45 l0 -27 10 25 c5 13 8 33 7 45 -3
19 -4 19 -11 2z"/>
<path d="M2556 2672 c-3 -6 -1 -14 5 -17 14 -9 20 -2 10 14 -6 8 -11 9 -15 3z"/>
<path d="M1252 2648 c-15 -15 -16 -42 -1 -32 8 5 8 1 0 -14 -6 -12 -16 -24
-21 -27 -14 -9 -12 -38 4 -60 13 -18 14 -17 31 14 9 18 20 55 24 82 7 42 6 49
-8 49 -10 0 -22 -5 -29 -12z"/>
<path d="M2640 2620 c0 -5 5 -10 10 -10 6 0 10 5 10 10 0 6 -4 10 -10 10 -5 0
-10 -4 -10 -10z"/>
<path d="M2676 2621 c-4 -5 -2 -12 3 -15 5 -4 12 -2 15 3 4 5 2 12 -3 15 -5 4
-12 2 -15 -3z"/>
<path d="M2608 2613 c7 -3 16 -2 19 1 4 3 -2 6 -13 5 -11 0 -14 -3 -6 -6z"/>
<path d="M1472 2394 c-14 -15 -8 -54 8 -54 5 0 14 10 21 21 8 17 8 24 -3 34
-11 11 -15 11 -26 -1z"/>
<path d="M2555 1908 c-2 -7 -8 -44 -13 -83 -9 -66 -8 -71 16 -102 14 -17 30
-29 36 -26 31 20 167 2 202 -26 44 -34 48 -24 9 22 -20 23 -57 68 -83 100 -44
55 -130 127 -152 127 -6 0 -13 -6 -15 -12z m89 -138 c9 0 16 -5 16 -11 0 -5 3
-8 8 -5 4 2 18 -2 32 -10 l25 -14 -30 6 c-52 12 -109 49 -129 85 -19 34 -18
33 21 -8 23 -24 48 -43 57 -43z m111 -50 c3 -6 -1 -7 -9 -4 -18 7 -21 14 -7
14 6 0 13 -4 16 -10z"/>
<path d="M1336 1476 c10 -8 21 -12 24 -10 5 6 -21 24 -34 24 -6 0 -1 -6 10
-14z"/>
<path d="M1401 1294 c0 -11 3 -14 6 -6 3 7 2 16 -1 19 -3 4 -6 -2 -5 -13z"/>
<path d="M1430 1272 c0 -6 16 -34 35 -63 20 -29 39 -58 44 -66 8 -14 41 -8 41
8 0 5 -21 35 -47 67 -43 54 -73 76 -73 54z"/>
<path d="M3100 1243 c0 -15 102 -83 123 -83 15 0 5 12 -37 45 -54 42 -86 56
-86 38z"/>
<path d="M1690 1232 c0 -5 19 -35 42 -68 40 -56 105 -178 127 -237 13 -33 86
-143 102 -153 33 -20 -59 192 -105 240 -14 16 -26 38 -26 50 -1 29 -17 55 -77
120 -51 55 -63 64 -63 48z"/>
<path d="M1967 1092 c6 -26 104 -137 135 -153 32 -17 8 17 -70 101 -49 52 -69
68 -65 52z"/>
<path d="M3794 1039 c-3 -5 -2 -9 3 -9 4 0 19 -3 32 -7 16 -4 22 -2 18 4 -9
15 -46 23 -53 12z"/>
<path d="M3725 1001 c-9 -16 41 -43 108 -57 34 -7 76 -16 92 -20 28 -7 29 -6
16 10 -36 43 -199 94 -216 67z"/>
<path d="M2210 991 c0 -5 20 -22 45 -38 114 -70 127 -83 122 -111 -10 -50 39
-102 96 -102 13 0 47 -8 76 -19 45 -15 56 -25 70 -57 13 -29 37 -52 89 -86 79
-53 104 -91 156 -238 l27 -75 82 -19 c103 -24 273 -32 343 -17 50 11 134 61
134 79 0 12 -46 32 -72 32 -28 0 -90 42 -147 98 l-44 43 41 25 c49 29 54 39
15 29 -35 -10 -75 -8 -82 4 -7 11 -131 31 -148 24 -7 -3 -13 -13 -13 -23 0
-21 53 -45 125 -56 41 -6 46 -8 28 -15 -43 -16 -184 40 -249 98 -41 37 -60 77
-63 137 -4 75 -13 83 -85 81 -35 -1 -72 4 -88 12 -15 7 -35 13 -46 13 -10 0
-29 18 -45 43 -40 63 -57 73 -128 80 -35 3 -101 20 -147 37 -93 34 -92 34 -92
21z"/>
<path d="M2056 892 c-3 -5 15 -33 40 -63 39 -47 44 -59 39 -89 -6 -44 7 -61
68 -89 32 -15 54 -33 65 -54 9 -17 37 -52 61 -77 24 -25 50 -54 57 -66 17 -25
84 -229 84 -255 0 -11 7 -19 15 -19 8 0 35 -16 60 -35 25 -19 62 -39 83 -45
77 -21 187 -8 222 28 13 13 12 14 -10 9 -14 -4 -48 0 -75 8 -43 11 -46 13 -20
15 17 1 39 5 50 9 15 6 11 9 -21 14 -46 8 -66 26 -89 80 -24 58 -20 102 13
126 l27 21 -51 -18 -50 -19 -23 34 c-12 19 -24 48 -28 65 -3 18 -22 45 -44 65
-21 19 -46 51 -56 71 -13 26 -42 53 -96 88 -42 29 -89 65 -105 81 -23 25 -187
123 -205 123 -3 0 -8 -4 -11 -8z m553 -662 c0 -23 -1 -23 -9 -5 -5 11 -9 29
-9 40 -1 17 1 17 9 5 5 -8 9 -26 9 -40z"/>
<path d="M4039 840 c25 -21 129 -56 138 -46 16 15 -10 35 -54 41 -26 4 -61 11
-78 16 l-30 9 24 -20z"/>
<path d="M4048 698 c17 -21 202 -45 234 -31 18 8 1 12 -85 23 -59 7 -110 10
-113 7 -4 -4 -16 -1 -28 5 -18 10 -19 9 -8 -4z"/>
<path d="M4501 638 c9 -18 8 -19 -10 -13 -17 5 -21 2 -21 -14 0 -25 1 -25 46
-6 40 17 41 35 1 46 -24 7 -26 5 -16 -13z"/>
</g>
</svg>
